<svg id="isobaren" xmlns="http://www.w3.org/2000/svg" viewBox="0 0 1149.97 882.23"><defs><style>.cls-1,.cls-2,.cls-3,.cls-4{fill:none;stroke-miterlimit:10;stroke-width:0.75px;}.cls-1{stroke:#ffdf2f;}.cls-2{stroke:#e73458;}.cls-3{stroke:#6859a3;}.cls-4{stroke:#66c1bf;}</style></defs><title>background</title><path class="cls-1" d="M951.07,224.92c-4-16.77-15.41-24.51-25.67-29.58S892,177.88,881.28,183.47s-18.91,9.07-21.85,17.08.16,16.08,13.29,23.93,31.95,19.08,56.83,20.86S951.07,224.92,951.07,224.92Z"/><path class="cls-2" d="M1020.73,191.63c-23.67-10.57-51.57-16.43-63.15-20.68s-47.24-7.84-64.86-17.7-38-21.42-50.78-17.91-18.35,12.93-21.56,27.47-5,11.33-5,27.48S788.8,217.07,794,232.59s36.51-4.87,50.8,2.5,23.83,21.89,30.38,30.68,57.26,38.46,69.36,39.07,22.18.92,46.3-20.81,36.91-35.74,44.87-40,20.24-22.74,8.25-35.21S1020.73,191.63,1020.73,191.63Z"/><path class="cls-3" d="M1153.5,245.48c-11.32,2.53-29.66,4-36.45,24.48s-2.73,53.94-19.61,65.56-33.63,18.55-43,17.38-25.46-2.21-33.25-2.45-21-.18-30.49-1.81-41.82-2.59-50.4-2.74-22.37-2.2-29-5.76-8.78-5.85-15.51-7.95S872.82,312.11,858,286s-12.42-31.58-23.37-34.47-19,5.81-34.53,1S771.27,235.05,769.25,217s2.37-18.73,2.29-25.66,5.47-15.93,9.27-17.08,7.37-13-1.69-17-16.07-8.2-21.74-8-11.9-7-7.65-8.73,5.79-4.12,7.07-7.6,1.59-4.35,5.3-7.26-1.87-9.24-5.4-12.18-7.32-13.21-.7-22.29,17.1-9.83,20.69-12.46,11.15-7.09,22.19-.41,4.22,15.36,15.71,19.91,13.07-6,21.08-2.78,6.78,8.4,12.73,11.9,21.25,11.09,25.14,14.82,28.4,20.29,69.75,22.32,35.2,1.74,49.15-4,19.16-3.82,32.17,8.19,22.35,17.08,37.7,16.47,14.22-18.13,11.75-24-13.21-18.66-25.09-23-18.49-8.76-10.58-24.93,7.68-8.36,12-20.93,14.73-12.35,20-12.39,16,.29,24.32-3.56,11.7,5.15,30.7-2,26-12.58,33-24"/><path class="cls-2" d="M1023.91,0c-3.9,3.67-27.9,7.23-28,14.54s13.28,25.55,13,33.36-11.43,38.85-36,60.15-43.49,14.34-64.27,11.53-28.52-8-33.31-10.43S859,102.26,855.42,97.09s-15-18.67-19.95-20.3-14.85-11.66-19.41-19.88-22.51-27.39-29-23.24S775.15,52.4,758.52,48.88s-25.18-10.27-28.95-14.07S718.48,27.46,716.64,24,700.26,5.27,693.18,2.49,676.52,0,673.85-11.5"/><path class="cls-3" d="M532.51-8.5c-2.08,20.08,2.59,37.38,17.42,42.05,10.53,3.32,11.55-.17,24.74,12.28s7.17,9.91,21,13.66,29.3,4.8,35.94-4.67S646.49,7.59,646.13,0"/><path class="cls-3" d="M930.34,51.1c-3.3-3.33-9-11.87-28.46-16.77s-36.23-.65-37.21,6.07S875,66.9,894.34,72.13,941.11,62,930.34,51.1Z"/><path class="cls-4" d="M784.48-20.41c7.76,3.79,25,6.12,31.3,13.84s6.66,12.53,9.1,19.3,2,10.82,15.32,26.5,22.08,38,52.85,47.33c26.18,8,57.81-7.88,58.37-19.64a41.16,41.16,0,0,0-2.24-16.29,30.51,30.51,0,0,0-1.25-2.86c-2.2-4.43-5.35-8.3-8.21-12.33-5.61-7.89-13.05-19.55-23-22.27-11.4-3.11-30.13-2.91-41.69-15.36"/><path class="cls-1" d="M749.78-1.38c15.42-.43,23.34-12.16,28.9-7.62s11.75,11.76,12.16,22.69,11.43,17,14.62,18.16,15.89,7,21.19,13.4,38.67,39.1,42.71,43.4,17.33,10.78,30.5,13.2S970.18,104,970.61,70c.27-22.17-7.71-41.38-18.57-49s-32.35-31.15-37.43-32.62-14.44-2.08-16.1-9.12"/><path class="cls-1" d="M785.16,281.32c.83-12.14,1.41-16.76-9.53-21.11s-12-.66-25.38-9.32-13.81,4.42-10.32,8.75,19.29,17.58,28.68,23.4S784.08,297.19,785.16,281.32Z"/><path class="cls-4" d="M1163.17,534.18c-21.4-13.94-122.73-98.83-146.88-104.42s-63.23-30.38-82.4-28.38-34.08-5.61-51.33-22.62-13.66-15-23.45-17.84-14.25-4.51-19.13-20.76c0,0-4.05-24.16-19.55-21.13s-13.1,17.86-44.47,5.91-34.89-28.5-66.91-31.53-31.78-19.15-25.93-26.78,18-18,24.44-35.69,18-9.94,22-8.92,12.83-.52,15.18-14.05S731.69,173.52,727,173.12s-3.66.35-9.71-1.63-5.36-3.2-8.8-3.24-12.58-6.1-14.85-13.36,1.53-14.25,11.19-13.66,12.25,2.27,16.36-2.88,1.35-20.49-6.76-24-6.06-3.66-13.79-3.44S689,108.49,686,101.21s-7.35-16.27-9.43-10.62.07,22-8.87,26.86-28.64,4-31.79,16-3.33,13.1-10.84,16.76-23.58-1-26.78-16.49S592.61,100,582.25,96s-19.71-22.3-22.74-28.84-21.33-17.21-31-16.55-4,14.33-13.71,17.86S507.48-8.5,507.48-8.5"/><path class="cls-1" d="M665.72,192.26c-.75-5.08,2.88-5.27,6.91-7.6s5.5-4.63,6.93-8.54,10-10,12.79-2.91-2.94,13.18-5.33,14.52-6.82,4.78-7.07,9.76S668.53,211.35,665.72,192.26Z"/><path class="cls-4" d="M1163.17,168.87c-10.41,1.52-23.69.75-31.12-3.62s-24-18.65-29.43-35,.15-17.2,8.63-23.53,47-29.15,51.92-33.51"/></svg>