<svg id="Layer_1" data-name="Layer 1" xmlns="http://www.w3.org/2000/svg" viewBox="0 0 248.3 111.05"><defs><style>.cls-1{fill:#3c3c3b;}</style></defs><title>logo_zwart</title><path class="cls-1" d="M123,35.93a.19.19,0,0,1,.17.08.14.14,0,0,1,0,.18l-4.68,11.39c-.06.15-.14.23-.24.23h-.61c-.1,0-.18-.08-.26-.23l-4.68-11.39a.19.19,0,0,1,0-.18.16.16,0,0,1,.14-.08h1.44c.1,0,.19.08.26.26l3.38,8.46,3.34-8.46c.07-.18.16-.26.27-.26Z"/><path class="cls-1" d="M124.67,47.81c-.15,0-.22-.08-.22-.24V36.05c0-.17.07-.25.22-.25h1.27a.23.23,0,0,1,.16.07.25.25,0,0,1,.08.18V47.57a.21.21,0,0,1-.08.16.24.24,0,0,1-.16.08Z"/><path class="cls-1" d="M134.39,40.7c.15,0,.23.08.23.26v6.59c0,.17-.08.26-.23.26h-.89c-.16,0-.27-.1-.32-.29l-.12-.58a2.44,2.44,0,0,1-2.09,1,3.09,3.09,0,0,1-2.57-1,4,4,0,0,1-.87-2.66,4,4,0,0,1,.89-2.67A3.17,3.17,0,0,1,131,40.49a2.31,2.31,0,0,1,.81.1l.4.14a1.4,1.4,0,0,1,.29.16l.27.17a1.16,1.16,0,0,1,.28.24l.12-.33q.09-.27.3-.27Zm-3.2,5.9c1.17,0,1.76-.79,1.76-2.39a2.88,2.88,0,0,0-.45-1.84,1.72,1.72,0,0,0-1.38-.54,1.66,1.66,0,0,0-1.42.7,2.79,2.79,0,0,0-.51,1.7,2.82,2.82,0,0,0,.5,1.69A1.72,1.72,0,0,0,131.19,46.6Z"/><path class="cls-1" d="M142.66,40.7c.15,0,.23.08.23.26v6.59c0,.17-.08.26-.23.26h-.89c-.16,0-.27-.1-.32-.29l-.12-.58a2.44,2.44,0,0,1-2.09,1,3.09,3.09,0,0,1-2.57-1,4,4,0,0,1-.87-2.66,4,4,0,0,1,.89-2.67,3.17,3.17,0,0,1,2.59-1.07,2.31,2.31,0,0,1,.81.1l.4.14a1.4,1.4,0,0,1,.29.16l.27.17a1.16,1.16,0,0,1,.28.24l.12-.33q.09-.27.3-.27Zm-3.2,5.9c1.17,0,1.76-.79,1.76-2.39a2.88,2.88,0,0,0-.45-1.84,1.72,1.72,0,0,0-1.38-.54,1.66,1.66,0,0,0-1.42.7,2.79,2.79,0,0,0-.51,1.7,2.82,2.82,0,0,0,.5,1.69A1.72,1.72,0,0,0,139.46,46.6Z"/><path class="cls-1" d="M153,40.49c1.91,0,2.86,1,2.86,3.09v4a.22.22,0,0,1-.08.16.23.23,0,0,1-.16.08h-1.26a.21.21,0,0,1-.16-.08.21.21,0,0,1-.07-.16v-4c0-1.18-.47-1.77-1.42-1.77a1.53,1.53,0,0,0-1.18.46,1.46,1.46,0,0,0-.42,1v4.25a.21.21,0,0,1-.23.24H149.6a.21.21,0,0,1-.24-.24V43.7c0-1.25-.47-1.87-1.39-1.87a1.56,1.56,0,0,0-1.2.46,1.47,1.47,0,0,0-.43,1v4.26a.21.21,0,0,1-.24.24h-1.25a.21.21,0,0,1-.24-.24V41c0-.18.08-.26.24-.26h1.09c.13,0,.22.1.24.29l.15.49a2.69,2.69,0,0,1,2.22-1,2.31,2.31,0,0,1,2.1,1.1,2.67,2.67,0,0,1,1-.8A3,3,0,0,1,153,40.49Z"/><path class="cls-1" d="M159.82,46.7c.81,0,1.22-.3,1.22-.92a.66.66,0,0,0-.31-.55,3.41,3.41,0,0,0-1.09-.42A4.76,4.76,0,0,1,157.7,44a1.76,1.76,0,0,1-.55-1.39,1.86,1.86,0,0,1,.75-1.52,3.21,3.21,0,0,1,2-.59,4.2,4.2,0,0,1,2.28.63.21.21,0,0,1,.11.31l-.42.74a.19.19,0,0,1-.31.09,2.8,2.8,0,0,0-1.54-.53c-.81,0-1.22.28-1.22.82a.71.71,0,0,0,.27.56,3,3,0,0,0,1,.41,5.78,5.78,0,0,1,2.06.86,1.73,1.73,0,0,1,.55,1.39,1.88,1.88,0,0,1-.81,1.55,3.39,3.39,0,0,1-2.13.62A3.61,3.61,0,0,1,157,47a.24.24,0,0,1,0-.32l.4-.68a.21.21,0,0,1,.33,0A3.18,3.18,0,0,0,159.82,46.7Z"/><path class="cls-1" d="M164.52,41.53a3.54,3.54,0,0,1,2.65-1,3,3,0,0,1,2.51,1.08,4.62,4.62,0,0,1,.86,3,.25.25,0,0,1-.08.17.25.25,0,0,1-.18.08h-5.06a2,2,0,0,0,2.22,1.92,3,3,0,0,0,1.83-.65c.12-.1.23-.09.3,0l.39.64c.09.13.09.23,0,.31a3.69,3.69,0,0,1-1.18.67,4.54,4.54,0,0,1-1.49.26,3.78,3.78,0,0,1-2.74-1,3.62,3.62,0,0,1-1.05-2.69A3.66,3.66,0,0,1,164.52,41.53Zm3.83.64a1.72,1.72,0,0,0-1.3-.5,1.69,1.69,0,0,0-1.3.53,2.37,2.37,0,0,0-.57,1.35h3.68A2,2,0,0,0,168.35,42.17Z"/><path class="cls-1" d="M123,52.81a.21.21,0,0,1,.17.08.14.14,0,0,1,0,.18l-4.68,11.4c-.06.15-.14.22-.24.22h-.61c-.1,0-.18-.07-.26-.22l-4.68-11.4a.19.19,0,0,1,0-.18.19.19,0,0,1,.14-.08h1.44c.1,0,.19.09.26.26l3.38,8.47,3.34-8.47c.07-.17.16-.26.27-.26Z"/><path class="cls-1" d="M123,58.41a3.57,3.57,0,0,1,2.66-1,3,3,0,0,1,2.5,1.07,4.59,4.59,0,0,1,.87,2.95.25.25,0,0,1-.08.18.24.24,0,0,1-.18.07h-5.07a2.27,2.27,0,0,0,.68,1.4,2.16,2.16,0,0,0,1.54.52,2.94,2.94,0,0,0,1.83-.64c.13-.1.23-.1.31,0l.39.65c.09.13.09.23,0,.31a3.5,3.5,0,0,1-1.18.66,4.31,4.31,0,0,1-1.5.26,3.72,3.72,0,0,1-2.73-1,3.6,3.6,0,0,1-1-2.69A3.71,3.71,0,0,1,123,58.41Zm3.84.65a1.69,1.69,0,0,0-1.3-.51,1.66,1.66,0,0,0-1.3.54,2.31,2.31,0,0,0-.57,1.34h3.68A2,2,0,0,0,126.87,59.06Z"/><path class="cls-1" d="M133.75,58.7a1.11,1.11,0,0,0-.91.52,2.14,2.14,0,0,0-.36,1.25v4a.23.23,0,0,1-.08.17.21.21,0,0,1-.16.07H131a.21.21,0,0,1-.24-.24V57.84c0-.17.08-.26.24-.26h.76c.16,0,.28.11.34.31l.17.52a2.43,2.43,0,0,1,3.1-.76.15.15,0,0,1,.1.14c0,.06,0,.09,0,.1l-.49,1a.21.21,0,0,1-.29.08A1.77,1.77,0,0,0,133.75,58.7Z"/><path class="cls-1" d="M137,58.41a3.57,3.57,0,0,1,2.66-1,3,3,0,0,1,2.5,1.07A4.59,4.59,0,0,1,143,61.4a.25.25,0,0,1-.08.18.24.24,0,0,1-.18.07h-5.07a2.27,2.27,0,0,0,.68,1.4,2.16,2.16,0,0,0,1.54.52,2.94,2.94,0,0,0,1.83-.64c.13-.1.23-.1.31,0l.39.65c.09.13.09.23,0,.31a3.5,3.5,0,0,1-1.18.66,4.29,4.29,0,0,1-1.49.26,3.73,3.73,0,0,1-2.74-1A3.6,3.6,0,0,1,136,61.1,3.71,3.71,0,0,1,137,58.41Zm3.84.65a1.69,1.69,0,0,0-1.3-.51,1.66,1.66,0,0,0-1.3.54,2.31,2.31,0,0,0-.57,1.34h3.68A2,2,0,0,0,140.82,59.06Z"/><path class="cls-1" d="M148.7,57.38c1.91,0,2.87,1,2.87,2.95v4.12a.23.23,0,0,1-.08.17.21.21,0,0,1-.16.07h-1.26a.21.21,0,0,1-.24-.24v-4c0-1.17-.5-1.76-1.52-1.76a2.08,2.08,0,0,0-1.34.44,1.34,1.34,0,0,0-.54,1.05v4.24a.21.21,0,0,1-.24.24h-1.27c-.15,0-.22-.08-.22-.24V57.84c0-.17.07-.26.22-.26h1.15c.09,0,.16.1.22.29l.14.56a2.29,2.29,0,0,1,.9-.75A3.06,3.06,0,0,1,148.7,57.38Z"/><path class="cls-1" d="M155,55.58a1,1,0,0,1-.7.29,1,1,0,0,1-.71-.29.92.92,0,0,1-.3-.7,1,1,0,0,1,.3-.7,1,1,0,0,1,.71-.3,1,1,0,0,1,1,1A.92.92,0,0,1,155,55.58Zm-1.33,9.11a.21.21,0,0,1-.24-.24V57.77c0-.17.08-.26.24-.25h1.25c.16,0,.24.08.24.25v6.68a.21.21,0,0,1-.24.24Z"/><path class="cls-1" d="M163.88,57.58c.15,0,.22.09.22.26V65a3.12,3.12,0,0,1-1,2.45,3.77,3.77,0,0,1-2.64.89,3.29,3.29,0,0,1-3.07-1.54.18.18,0,0,1,0-.27l.7-.61c.13-.1.23-.08.29.05a2.11,2.11,0,0,0,1.93,1,2.18,2.18,0,0,0,1.55-.54,1.84,1.84,0,0,0,.55-1.48V64a2.78,2.78,0,0,1-2.25.84,2.91,2.91,0,0,1-2.39-1,4.08,4.08,0,0,1-.85-2.66,4,4,0,0,1,.88-2.67,3,3,0,0,1,2.41-1.06,2.72,2.72,0,0,1,2.24.88l.12-.4c.06-.18.16-.28.3-.28Zm-4.74,5.24a1.83,1.83,0,0,0,1.55.67,1.57,1.57,0,0,0,1.41-.57,3.18,3.18,0,0,0,.39-1.77,3.43,3.43,0,0,0-.39-1.81,1.58,1.58,0,0,0-1.43-.62,1.81,1.81,0,0,0-1.54.68,3.1,3.1,0,0,0,0,3.42Z"/><path class="cls-1" d="M167.3,55.58a1,1,0,0,1-.71.29,1,1,0,0,1-.7-.29.92.92,0,0,1-.3-.7,1,1,0,0,1,1-1,1,1,0,0,1,.71.3,1,1,0,0,1,.3.7A.92.92,0,0,1,167.3,55.58ZM166,64.69a.21.21,0,0,1-.24-.24V57.77c0-.17.08-.26.24-.25h1.25c.16,0,.24.08.24.25v6.68a.21.21,0,0,1-.24.24Z"/><path class="cls-1" d="M173.35,57.38c1.91,0,2.87,1,2.87,2.95v4.12a.23.23,0,0,1-.08.17.19.19,0,0,1-.15.07h-1.26a.21.21,0,0,1-.24-.24v-4c0-1.17-.51-1.76-1.53-1.76a2,2,0,0,0-1.33.44,1.35,1.35,0,0,0-.55,1.05v4.24a.21.21,0,0,1-.24.24h-1.26a.21.21,0,0,1-.23-.24V57.84c0-.17.08-.26.23-.26h1.15c.09,0,.16.1.21.29l.14.56a2.44,2.44,0,0,1,.9-.75A3.09,3.09,0,0,1,173.35,57.38Z"/><path class="cls-1" d="M184.84,57.58c.15,0,.22.09.22.26V65a3.12,3.12,0,0,1-1,2.45,3.77,3.77,0,0,1-2.64.89,3.29,3.29,0,0,1-3.07-1.54.18.18,0,0,1,0-.27l.7-.61c.13-.1.23-.08.29.05a2.11,2.11,0,0,0,1.93,1,2.18,2.18,0,0,0,1.55-.54,1.84,1.84,0,0,0,.55-1.48V64a2.78,2.78,0,0,1-2.25.84,2.91,2.91,0,0,1-2.39-1,4.08,4.08,0,0,1-.85-2.66,4,4,0,0,1,.88-2.67,3,3,0,0,1,2.41-1.06,2.72,2.72,0,0,1,2.24.88l.12-.4c.06-.18.16-.28.3-.28Zm-4.74,5.24a1.82,1.82,0,0,0,1.55.67,1.57,1.57,0,0,0,1.41-.57,3.18,3.18,0,0,0,.39-1.77,3.43,3.43,0,0,0-.39-1.81,1.58,1.58,0,0,0-1.43-.62,1.81,1.81,0,0,0-1.54.68,2.76,2.76,0,0,0-.51,1.71A2.7,2.7,0,0,0,180.1,62.82Z"/><path class="cls-1" d="M197,57.52a.2.2,0,0,1,.19.12.25.25,0,0,1,0,.25L194,64.45c-.07.16-.14.24-.22.24h-.51q-.14,0-.24-.24l-3.18-6.58a.27.27,0,0,1,0-.23.2.2,0,0,1,.19-.12h1.28c.08,0,.17.08.25.25l1.92,4.33,1.91-4.33c.07-.17.15-.26.26-.25Z"/><path class="cls-1" d="M203.92,63.75a3.83,3.83,0,0,1-5.31,0,3.9,3.9,0,0,1,0-5.29,3.84,3.84,0,0,1,5.33,0,3.94,3.94,0,0,1,0,5.3Zm-4.13-.94a1.85,1.85,0,0,0,1.48.68,1.79,1.79,0,0,0,1.46-.68,2.9,2.9,0,0,0,0-3.4,1.77,1.77,0,0,0-1.46-.69,1.83,1.83,0,0,0-1.48.69,2.82,2.82,0,0,0,0,3.4Z"/><path class="cls-1" d="M212.29,63.75a3.5,3.5,0,0,1-2.65,1.07A3.56,3.56,0,0,1,207,63.75a3.88,3.88,0,0,1,0-5.29,3.83,3.83,0,0,1,5.32,0,3.94,3.94,0,0,1,0,5.3Zm-4.12-.94a1.93,1.93,0,0,0,2.94,0,2.9,2.9,0,0,0,0-3.4,1.91,1.91,0,0,0-2.94,0,2.82,2.82,0,0,0,0,3.4Z"/><path class="cls-1" d="M217.56,58.7a1.08,1.08,0,0,0-.91.52,2.14,2.14,0,0,0-.36,1.25v4a.23.23,0,0,1-.08.17.25.25,0,0,1-.17.07h-1.25a.21.21,0,0,1-.24-.24V57.84c0-.17.08-.26.24-.26h.77c.16,0,.27.11.34.31l.16.52a2.3,2.3,0,0,1,1.92-1,2.33,2.33,0,0,1,1.19.27.17.17,0,0,1,.08.24l-.49,1a.21.21,0,0,1-.29.08A1.73,1.73,0,0,0,217.56,58.7Z"/><path class="cls-1" d="M129.54,69.7a.23.23,0,0,1,.17.08.22.22,0,0,1,0,.18l-3.88,11.45a.23.23,0,0,1-.23.17h-1.28a.23.23,0,0,1-.22-.15l-2.58-6.16L119,81.41a.23.23,0,0,1-.23.17h-1.27a.25.25,0,0,1-.24-.17L113.36,70a.17.17,0,0,1,0-.18.23.23,0,0,1,.17-.08H116c.14,0,.22.09.24.26l2,6.07L120.74,70c.07-.17.15-.26.26-.26h1.1c.11,0,.2.09.27.26L124.8,76l2-6.07c.06-.17.15-.26.24-.26Z"/><path class="cls-1" d="M130,75.3a4,4,0,0,1,2.87-1,3.17,3.17,0,0,1,2.7,1.18,5.26,5.26,0,0,1,.89,3.24.24.24,0,0,1-.08.18.24.24,0,0,1-.18.07h-4.53a1.46,1.46,0,0,0,1.55.87,3.2,3.2,0,0,0,1.61-.39c.15-.07.26,0,.32.06l.62,1.15c.08.15.08.26,0,.33a4.76,4.76,0,0,1-2.81.76,4.13,4.13,0,0,1-2.87-1A3.79,3.79,0,0,1,130,75.3Zm3.44,1a.94.94,0,0,0-.75-.32.89.89,0,0,0-.73.31,1.51,1.51,0,0,0-.32.74h2.12A1.31,1.31,0,0,0,133.48,76.33Z"/><path class="cls-1" d="M138.59,75.3a4,4,0,0,1,2.87-1,3.14,3.14,0,0,1,2.69,1.18,5.2,5.2,0,0,1,.9,3.24.29.29,0,0,1-.08.18.24.24,0,0,1-.18.07h-4.53a1.46,1.46,0,0,0,1.55.87,3.23,3.23,0,0,0,1.61-.39c.15-.07.25,0,.32.06l.61,1.15c.09.15.09.26,0,.33a4.78,4.78,0,0,1-2.81.76,4.12,4.12,0,0,1-2.87-1A3.47,3.47,0,0,1,137.51,78,3.54,3.54,0,0,1,138.59,75.3Zm3.44,1a1,1,0,0,0-.75-.32.89.89,0,0,0-.73.31,1.43,1.43,0,0,0-.32.74h2.12A1.31,1.31,0,0,0,142,76.33Z"/><path class="cls-1" d="M150.1,76.32c-.58,0-.88.45-.89,1.36v3.64c0,.17-.08.26-.24.26h-2.31a.23.23,0,0,1-.26-.26V74.69c0-.19.08-.29.26-.29h1.42a.49.49,0,0,1,.47.33l.24.44a2.42,2.42,0,0,1,1.92-.91c.88,0,1.32.16,1.32.47l-.89,1.73a.22.22,0,0,1-.33.08A1.36,1.36,0,0,0,150.1,76.32Z"/><path class="cls-1" d="M161.17,81.58h-2.42a.57.57,0,0,1-.46-.24l-2.33-3v3c0,.17-.08.26-.25.26h-2.32c-.16,0-.24-.09-.24-.26V69.84q0-.27.24-.27h2.32a.24.24,0,0,1,.18.07.27.27,0,0,1,.07.2v7.58l2.18-2.77c.14-.17.26-.25.37-.25h2.42a.27.27,0,0,1,.22.13.22.22,0,0,1,0,.28l-2.42,3,2.68,3.38a.23.23,0,0,1,0,.24A.24.24,0,0,1,161.17,81.58Z"/><path class="cls-1" d="M169.94,74.4c.17,0,.26.1.25.29v6.65c0,.16-.08.24-.25.24h-1.82a.41.41,0,0,1-.37-.24l-.39-.59a1.92,1.92,0,0,1-.81.68,2.36,2.36,0,0,1-1.1.28,2.89,2.89,0,0,1-2.24-.82,3.23,3.23,0,0,1-.77-2.31V74.69c0-.19.08-.29.24-.29H165c.17,0,.25.1.25.29v3.76a1.28,1.28,0,0,0,.28.85.92.92,0,0,0,.76.35,1,1,0,0,0,.77-.33,1.36,1.36,0,0,0,.31-.83v-3.8c0-.19.08-.29.25-.29Z"/><path class="cls-1" d="M176.67,74.26a3.08,3.08,0,0,1,2.45.88,3.37,3.37,0,0,1,.77,2.31v3.87a.23.23,0,0,1-.09.19.34.34,0,0,1-.18.07h-2.29a.23.23,0,0,1-.26-.26V77.56a1.2,1.2,0,0,0-.32-.85,1,1,0,0,0-.82-.36,1.18,1.18,0,0,0-.86.36,1.11,1.11,0,0,0-.37.85v3.76a.23.23,0,0,1-.25.26h-2.33c-.16,0-.24-.09-.24-.26V74.69c0-.19.08-.29.24-.29h2.16c.11,0,.19.1.25.29l.17.51a2.41,2.41,0,0,1,.87-.67A2.48,2.48,0,0,1,176.67,74.26Z"/><path class="cls-1" d="M188.49,69.57c.16,0,.24.09.23.27V81.32c0,.17-.08.26-.23.26H187a.5.5,0,0,1-.47-.33l-.12-.25a2.91,2.91,0,0,1-2,.71,3.11,3.11,0,0,1-2.59-1A4.18,4.18,0,0,1,181,78a4,4,0,0,1,.88-2.67,3.17,3.17,0,0,1,2.55-1,3.11,3.11,0,0,1,1.46.34V69.84a.22.22,0,0,1,.08-.19.21.21,0,0,1,.17-.08ZM184,79.16a1.07,1.07,0,0,0,.95.46.91.91,0,0,0,.87-.42,2.45,2.45,0,0,0,.24-1.2,2.52,2.52,0,0,0-.24-1.21.91.91,0,0,0-.87-.44,1.06,1.06,0,0,0-.95.48,2.06,2.06,0,0,0-.32,1.17A2,2,0,0,0,184,79.16Z"/><path class="cls-1" d="M191,75.3a4,4,0,0,1,2.88-1,3.17,3.17,0,0,1,2.69,1.18,5.26,5.26,0,0,1,.89,3.24.24.24,0,0,1-.08.18.23.23,0,0,1-.17.07h-4.53a1.44,1.44,0,0,0,1.54.87,3.2,3.2,0,0,0,1.61-.39c.15-.07.26,0,.32.06l.62,1.15c.09.15.08.26,0,.33a4.76,4.76,0,0,1-2.81.76,4.13,4.13,0,0,1-2.87-1A3.82,3.82,0,0,1,191,75.3Zm3.44,1a.94.94,0,0,0-.75-.32.87.87,0,0,0-.72.31,1.44,1.44,0,0,0-.33.74h2.12A1.31,1.31,0,0,0,194.4,76.33Z"/><path class="cls-1" d="M103.15,29.32,91.77,81.72H74.25a10.13,10.13,0,0,0,2-6.12c0-3.14-1.16-5.72-2.81-8.54s-3.77-5.86-5.71-9.91c-.6-1.26-1.18-2.61-1.72-4.09C65.52,54.48,65,55.79,64.38,57,60.5,65.22,55.79,69.3,55.79,75.6a10.2,10.2,0,0,0,2,6.12H40.4L29,29.32H44.46l7,32,6.95-32H73.81l7,32,7-32Z"/><path class="cls-1" d="M70.33,76.64a1.65,1.65,0,0,0,1.37,2h.21A1.88,1.88,0,0,0,73.73,77c1.44-6-2.37-8.77-6.31-17.76C69.08,68.22,71.76,69.74,70.33,76.64Z"/></svg>